<svg width="800" height="1024" viewBox="0 0 800 1024" fill="none" xmlns="http://www.w3.org/2000/svg">
<g clip-path="url(#clip0_4_552)">
<rect width="842" height="1000" transform="translate(-21 90)" fill="#252526"/>
<path d="M642.44 644.102C636.318 639.256 632.843 632.7 632.907 626.096L635.624 340.794C635.688 334.141 639.331 327.525 645.6 322.654C672.761 301.56 688.512 270.554 688.827 237.608C689.2 198.399 667.146 161.692 631.269 141.795C627.228 139.549 622.217 139.524 618.138 141.721C614.059 143.919 611.528 148.02 611.483 152.476L610.905 213.206L571.134 239.304L532.038 213.267L532.616 152.61C532.661 148.13 530.168 143.967 526.095 141.709C522.023 139.451 516.993 139.414 512.894 141.673C448.421 174.947 433.473 264.175 485.301 313.474H439.597C420.107 313.474 401.58 321.458 388.751 335.398L291.955 440.867L151.162 480.43C127.611 486.997 111.166 507.835 111.166 531.114V613.523C111.166 642.734 136.277 666.489 167.138 666.489H190.495C217.882 754.24 350.613 754.33 378.011 666.487C378.011 666.489 470.177 666.489 470.177 666.489C419.067 732.481 465.733 831.164 552.25 839.291C666.431 851.526 731.615 715.17 642.44 644.102ZM284.253 707.859C244.881 707.859 212.845 677.744 212.845 640.721C216.188 551.883 352.333 551.906 355.662 640.721C355.662 677.744 323.626 707.859 284.253 707.859ZM381.933 641.49C382.53 590.436 338.37 548.567 284.253 548.594C230.137 548.567 185.976 590.437 186.573 641.49H167.138C150.783 641.49 137.479 628.941 137.479 613.523V531.114C137.479 518.858 146.151 507.884 158.594 504.417L303.088 463.804C305.484 463.133 307.63 461.827 309.275 460.032L408.576 351.841C416.394 343.345 427.7 338.475 439.597 338.475H504.639C504.705 339.144 502.16 626.011 502.16 626.011C502.105 631.561 499.381 637.017 494.795 641.49L381.933 641.49ZM627.093 792.869C575.643 838.221 486.016 809.343 476.285 743.013C471.537 712.535 483.755 682.688 508.963 663.181C520.904 653.549 528.434 640.295 528.473 626.231L531.196 340.696C531.067 326.222 524.09 312.631 512.175 303.257C491.464 286.888 479.721 262.889 479.965 237.425C480.177 215.11 489.794 193.846 506.059 178.037L505.661 219.615C505.623 223.728 507.717 227.598 511.263 229.954L563.522 264.768C568.019 267.771 574.018 267.796 578.554 264.829L631.474 230.1C634.995 227.781 637.115 223.985 637.153 219.92L637.551 178.001C653.521 193.809 662.727 215.086 662.515 237.388C662.271 262.889 650.039 286.912 628.943 303.294C616.609 312.889 609.453 326.463 609.312 340.562L606.594 625.877C606.459 640.013 613.391 653.66 625.616 663.316C667.831 695.068 668.012 759.959 627.093 792.869Z" fill="#CE1634"/>
<path d="M602.418 684.666C600.112 680.759 595.782 678.33 591.074 678.281L543.748 677.842C539.354 678.037 534.768 680.088 532.359 683.884L507.961 722.263C505.513 726.108 505.43 730.918 507.749 734.836L530.676 773.655C532.982 777.561 537.312 779.99 542.02 780.039L589.346 780.479C593.994 780.521 598.331 778.232 600.735 774.436L625.133 736.057C627.581 732.212 627.665 727.402 625.345 723.484L602.418 684.666ZM582.093 755.405L549.896 755.112L534.446 728.953L551.001 702.915L583.198 703.208L598.647 729.368L582.093 755.405Z" fill="#CE1634"/>
<path d="M567.363 643.32C574.619 643.384 580.58 637.844 580.641 630.93L583.487 332.626C583.556 325.69 577.638 320.008 570.331 320.017C563.117 320.017 557.239 325.534 557.175 332.407L554.329 630.71C554.264 637.607 560.097 643.259 567.363 643.32Z" fill="#CE1634"/>
<path d="M284.254 598.435C225.063 600.217 225.077 681.231 284.254 683.005C343.444 681.223 343.43 600.208 284.254 598.435ZM284.254 658.005C259.972 657.597 259.975 623.839 284.254 623.435C308.535 623.842 308.532 657.601 284.254 658.005Z" fill="#CE1634"/>
</g>
<defs>
<clipPath id="clip0_4_552">
<rect width="800" height="1024" fill="white"/>
</clipPath>
</defs>
</svg>
